<svg width="32" height="32" viewBox="0 0 32 32" fill="none" xmlns="http://www.w3.org/2000/svg">
<path fill-rule="evenodd" clip-rule="evenodd" d="M16 32C18.1012 32 20.1817 31.5861 22.1229 30.7821C24.0641 29.978 25.828 28.7994 27.3137 27.3137C28.7994 25.828 29.978 24.0641 30.7821 22.1229C31.5861 20.1817 32 18.1012 32 16C32 13.8989 31.5861 11.8183 30.7821 9.87706C29.978 7.93586 28.7994 6.17203 27.3137 4.68629C25.828 3.20055 24.0641 2.022 22.1229 1.21793C20.1817 0.413852 18.1012 -3.13096e-08 16 0C11.7565 6.32325e-08 7.68687 1.68571 4.68629 4.68629C1.68571 7.68687 0 11.7565 0 16C0 20.2435 1.68571 24.3131 4.68629 27.3137C7.68687 30.3143 11.7565 32 16 32ZM15.5876 22.4711L24.4764 11.8044L21.7458 9.52889L14.1013 18.7004L10.1458 14.7431L7.632 17.2569L12.9653 22.5902L14.3413 23.9662L15.5876 22.4711Z" fill="white"/>
</svg>
