<svg width="1920" height="750" viewBox="0 0 1920 750" fill="none" xmlns="http://www.w3.org/2000/svg">
<mask id="mask0_11_91" style="mask-type:alpha" maskUnits="userSpaceOnUse" x="0" y="0" width="1920" height="750">
<mask id="path-1-inside-1_11_91" fill="white">
<path d="M1920 0H0V750H1920V0Z"/>
</mask>
<path d="M1920 0H0V750H1920V0Z" fill="url(#paint0_radial_11_91)"/>
<path d="M1920 1H0V-1H1920V1ZM0 749H1920V751H0V749Z" fill="url(#paint1_linear_11_91)" fill-opacity="0.65" mask="url(#path-1-inside-1_11_91)"/>
</mask>
<g mask="url(#mask0_11_91)">
<g opacity="0.25">
<line y1="-0.5" x2="805" y2="-0.5" transform="matrix(4.37114e-08 1 1 -4.37114e-08 1007 0)" stroke="white"/>
<line y1="-0.5" x2="805" y2="-0.5" transform="matrix(4.37114e-08 1 1 -4.37114e-08 1007 0)" stroke="white"/>
<line y1="-0.5" x2="805" y2="-0.5" transform="matrix(4.37114e-08 1 1 -4.37114e-08 970 0)" stroke="white"/>
<line y1="-0.5" x2="805" y2="-0.5" transform="matrix(4.37114e-08 1 1 -4.37114e-08 970 0)" stroke="white"/>
<line y1="-0.5" x2="805" y2="-0.5" transform="matrix(4.37114e-08 1 1 -4.37114e-08 933 0)" stroke="white"/>
<line y1="-0.5" x2="805" y2="-0.5" transform="matrix(4.37114e-08 1 1 -4.37114e-08 933 0)" stroke="white"/>
<line y1="-0.5" x2="805" y2="-0.5" transform="matrix(4.37114e-08 1 1 -4.37114e-08 896 0)" stroke="white"/>
<line y1="-0.5" x2="805" y2="-0.5" transform="matrix(4.37114e-08 1 1 -4.37114e-08 896 0)" stroke="white"/>
<line y1="-0.5" x2="805" y2="-0.5" transform="matrix(4.37114e-08 1 1 -4.37114e-08 859 0)" stroke="white"/>
<line y1="-0.5" x2="805" y2="-0.5" transform="matrix(4.37114e-08 1 1 -4.37114e-08 859 0)" stroke="white"/>
<line y1="-0.5" x2="805" y2="-0.5" transform="matrix(4.37114e-08 1 1 -4.37114e-08 822 0)" stroke="white"/>
<line y1="-0.5" x2="805" y2="-0.5" transform="matrix(4.37114e-08 1 1 -4.37114e-08 822 0)" stroke="white"/>
<line y1="-0.5" x2="805" y2="-0.5" transform="matrix(4.37114e-08 1 1 -4.37114e-08 785 0)" stroke="white"/>
<line y1="-0.5" x2="805" y2="-0.5" transform="matrix(4.37114e-08 1 1 -4.37114e-08 785 0)" stroke="white"/>
<line y1="-0.5" x2="805" y2="-0.5" transform="matrix(4.37114e-08 1 1 -4.37114e-08 748 0)" stroke="white"/>
<line y1="-0.5" x2="805" y2="-0.5" transform="matrix(4.37114e-08 1 1 -4.37114e-08 748 0)" stroke="white"/>
<line y1="-0.5" x2="805" y2="-0.5" transform="matrix(4.37114e-08 1 1 -4.37114e-08 711 0)" stroke="white"/>
<line y1="-0.5" x2="805" y2="-0.5" transform="matrix(4.37114e-08 1 1 -4.37114e-08 711 0)" stroke="white"/>
<line y1="-0.5" x2="805" y2="-0.5" transform="matrix(4.37114e-08 1 1 -4.37114e-08 674 0)" stroke="white"/>
<line y1="-0.5" x2="805" y2="-0.5" transform="matrix(4.37114e-08 1 1 -4.37114e-08 674 0)" stroke="white"/>
<line y1="-0.5" x2="805" y2="-0.5" transform="matrix(4.37114e-08 1 1 -4.37114e-08 637 0)" stroke="white"/>
<line y1="-0.5" x2="805" y2="-0.5" transform="matrix(4.37114e-08 1 1 -4.37114e-08 637 0)" stroke="white"/>
<line y1="-0.5" x2="805" y2="-0.5" transform="matrix(4.37114e-08 1 1 -4.37114e-08 600 0)" stroke="white"/>
<line y1="-0.5" x2="805" y2="-0.5" transform="matrix(4.37114e-08 1 1 -4.37114e-08 600 0)" stroke="white"/>
<line y1="-0.5" x2="805" y2="-0.5" transform="matrix(4.37114e-08 1 1 -4.37114e-08 563 0)" stroke="white"/>
<line y1="-0.5" x2="805" y2="-0.5" transform="matrix(4.37114e-08 1 1 -4.37114e-08 563 0)" stroke="white"/>
<line y1="-0.5" x2="805" y2="-0.5" transform="matrix(4.37114e-08 1 1 -4.37114e-08 526 0)" stroke="white"/>
<line y1="-0.5" x2="805" y2="-0.5" transform="matrix(4.37114e-08 1 1 -4.37114e-08 526 0)" stroke="white"/>
<line y1="-0.5" x2="805" y2="-0.5" transform="matrix(4.37114e-08 1 1 -4.37114e-08 489 0)" stroke="white"/>
<line y1="-0.5" x2="805" y2="-0.5" transform="matrix(4.37114e-08 1 1 -4.37114e-08 489 0)" stroke="white"/>
<line y1="-0.5" x2="805" y2="-0.5" transform="matrix(4.37114e-08 1 1 -4.37114e-08 452 0)" stroke="white"/>
<line y1="-0.5" x2="805" y2="-0.5" transform="matrix(4.37114e-08 1 1 -4.37114e-08 452 0)" stroke="white"/>
<line y1="-0.5" x2="805" y2="-0.5" transform="matrix(4.37114e-08 1 1 -4.37114e-08 415 0)" stroke="white"/>
<line y1="-0.5" x2="805" y2="-0.5" transform="matrix(4.37114e-08 1 1 -4.37114e-08 415 0)" stroke="white"/>
<line y1="-0.5" x2="805" y2="-0.5" transform="matrix(4.37114e-08 1 1 -4.37114e-08 380 0)" stroke="white"/>
<line y1="-0.5" x2="805" y2="-0.5" transform="matrix(4.37114e-08 1 1 -4.37114e-08 380 0)" stroke="white"/>
<line y1="-0.5" x2="805" y2="-0.5" transform="matrix(4.37114e-08 1 1 -4.37114e-08 343 0)" stroke="white"/>
<line y1="-0.5" x2="805" y2="-0.5" transform="matrix(4.37114e-08 1 1 -4.37114e-08 343 0)" stroke="white"/>
<line y1="-0.5" x2="805" y2="-0.5" transform="matrix(4.37114e-08 1 1 -4.37114e-08 306 0)" stroke="white"/>
<line y1="-0.5" x2="805" y2="-0.5" transform="matrix(4.37114e-08 1 1 -4.37114e-08 306 0)" stroke="white"/>
<line y1="-0.5" x2="805" y2="-0.5" transform="matrix(4.37114e-08 1 1 -4.37114e-08 269 0)" stroke="white"/>
<line y1="-0.5" x2="805" y2="-0.5" transform="matrix(4.37114e-08 1 1 -4.37114e-08 269 0)" stroke="white"/>
<line y1="-0.5" x2="805" y2="-0.5" transform="matrix(4.37114e-08 1 1 -4.37114e-08 232 0)" stroke="white"/>
<line y1="-0.5" x2="805" y2="-0.5" transform="matrix(4.37114e-08 1 1 -4.37114e-08 232 0)" stroke="white"/>
<line y1="-0.5" x2="805" y2="-0.5" transform="matrix(4.37114e-08 1 1 -4.37114e-08 195 0)" stroke="white"/>
<line y1="-0.5" x2="805" y2="-0.5" transform="matrix(4.37114e-08 1 1 -4.37114e-08 195 0)" stroke="white"/>
<line y1="-0.5" x2="805" y2="-0.5" transform="matrix(4.37114e-08 1 1 -4.37114e-08 158 0)" stroke="white"/>
<line y1="-0.5" x2="805" y2="-0.5" transform="matrix(4.37114e-08 1 1 -4.37114e-08 158 0)" stroke="white"/>
<line y1="-0.5" x2="805" y2="-0.5" transform="matrix(4.37114e-08 1 1 -4.37114e-08 121 0)" stroke="white"/>
<line y1="-0.5" x2="805" y2="-0.5" transform="matrix(4.37114e-08 1 1 -4.37114e-08 121 0)" stroke="white"/>
<line y1="-0.5" x2="805" y2="-0.5" transform="matrix(4.37114e-08 1 1 -4.37114e-08 84 0)" stroke="white"/>
<line y1="-0.5" x2="805" y2="-0.5" transform="matrix(4.37114e-08 1 1 -4.37114e-08 84 0)" stroke="white"/>
<line y1="-0.5" x2="805" y2="-0.5" transform="matrix(4.37114e-08 1 1 -4.37114e-08 47 0)" stroke="white"/>
<line y1="-0.5" x2="805" y2="-0.5" transform="matrix(4.37114e-08 1 1 -4.37114e-08 47 0)" stroke="white"/>
<line y1="-0.5" x2="805" y2="-0.5" transform="matrix(4.37114e-08 1 1 -4.37114e-08 10 0)" stroke="white"/>
<line y1="-0.5" x2="805" y2="-0.5" transform="matrix(4.37114e-08 1 1 -4.37114e-08 10 0)" stroke="white"/>
<line y1="-0.5" x2="981.094" y2="-0.5" transform="matrix(1 -8.74228e-08 -8.74228e-08 -1 25.9062 41.9998)" stroke="white"/>
<line y1="-0.5" x2="981.094" y2="-0.5" transform="matrix(1 -8.74228e-08 -8.74228e-08 -1 25.9062 41.9998)" stroke="white"/>
<line y1="-0.5" x2="981.094" y2="-0.5" transform="matrix(1 -8.74228e-08 -8.74228e-08 -1 25.9062 87.0935)" stroke="white"/>
<line y1="-0.5" x2="981.094" y2="-0.5" transform="matrix(1 -8.74228e-08 -8.74228e-08 -1 25.9062 87.0935)" stroke="white"/>
<line y1="-0.5" x2="981.094" y2="-0.5" transform="matrix(1 -8.74228e-08 -8.74228e-08 -1 25.9062 132.187)" stroke="white"/>
<line y1="-0.5" x2="981.094" y2="-0.5" transform="matrix(1 -8.74228e-08 -8.74228e-08 -1 25.9062 132.187)" stroke="white"/>
<line y1="-0.5" x2="981.094" y2="-0.5" transform="matrix(1 -8.74228e-08 -8.74228e-08 -1 25.9062 177.281)" stroke="white"/>
<line y1="-0.5" x2="981.094" y2="-0.5" transform="matrix(1 -8.74228e-08 -8.74228e-08 -1 25.9062 177.281)" stroke="white"/>
<line y1="-0.5" x2="981.094" y2="-0.5" transform="matrix(1 -8.74228e-08 -8.74228e-08 -1 25.9062 222.375)" stroke="white"/>
<line y1="-0.5" x2="981.094" y2="-0.5" transform="matrix(1 -8.74228e-08 -8.74228e-08 -1 25.9062 222.375)" stroke="white"/>
<line y1="-0.5" x2="981.094" y2="-0.5" transform="matrix(1 -8.74228e-08 -8.74228e-08 -1 25.9062 267.469)" stroke="white"/>
<line y1="-0.5" x2="981.094" y2="-0.5" transform="matrix(1 -8.74228e-08 -8.74228e-08 -1 25.9062 267.469)" stroke="white"/>
<line y1="-0.5" x2="981.094" y2="-0.5" transform="matrix(1 -8.74228e-08 -8.74228e-08 -1 25.9062 312.562)" stroke="white"/>
<line y1="-0.5" x2="981.094" y2="-0.5" transform="matrix(1 -8.74228e-08 -8.74228e-08 -1 25.9062 312.562)" stroke="white"/>
<line y1="-0.5" x2="981.094" y2="-0.5" transform="matrix(1 -8.74228e-08 -8.74228e-08 -1 25.9062 357.656)" stroke="white"/>
<line y1="-0.5" x2="981.094" y2="-0.5" transform="matrix(1 -8.74228e-08 -8.74228e-08 -1 25.9062 357.656)" stroke="white"/>
<line y1="-0.5" x2="981.094" y2="-0.5" transform="matrix(1 -8.74228e-08 -8.74228e-08 -1 25.9062 402.75)" stroke="white"/>
<line y1="-0.5" x2="981.094" y2="-0.5" transform="matrix(1 -8.74228e-08 -8.74228e-08 -1 25.9062 402.75)" stroke="white"/>
<line y1="-0.5" x2="981.094" y2="-0.5" transform="matrix(1 -8.74228e-08 -8.74228e-08 -1 25.9062 447.843)" stroke="white"/>
<line y1="-0.5" x2="981.094" y2="-0.5" transform="matrix(1 -8.74228e-08 -8.74228e-08 -1 25.9062 447.843)" stroke="white"/>
<line y1="-0.5" x2="981.094" y2="-0.5" transform="matrix(1 -8.74228e-08 -8.74228e-08 -1 25.9062 492.937)" stroke="white"/>
<line y1="-0.5" x2="981.094" y2="-0.5" transform="matrix(1 -8.74228e-08 -8.74228e-08 -1 25.9062 492.937)" stroke="white"/>
<line y1="-0.5" x2="981.094" y2="-0.5" transform="matrix(1 -8.74228e-08 -8.74228e-08 -1 25.9062 538.031)" stroke="white"/>
<line y1="-0.5" x2="981.094" y2="-0.5" transform="matrix(1 -8.74228e-08 -8.74228e-08 -1 25.9062 538.031)" stroke="white"/>
<line y1="-0.5" x2="981.094" y2="-0.5" transform="matrix(1 -8.74228e-08 -8.74228e-08 -1 25.9062 583.125)" stroke="white"/>
<line y1="-0.5" x2="981.094" y2="-0.5" transform="matrix(1 -8.74228e-08 -8.74228e-08 -1 25.9062 583.125)" stroke="white"/>
<line y1="-0.5" x2="981.094" y2="-0.5" transform="matrix(1 -8.74228e-08 -8.74228e-08 -1 25.9062 628.219)" stroke="white"/>
<line y1="-0.5" x2="981.094" y2="-0.5" transform="matrix(1 -8.74228e-08 -8.74228e-08 -1 25.9062 628.219)" stroke="white"/>
<line y1="-0.5" x2="981.094" y2="-0.5" transform="matrix(1 -8.74228e-08 -8.74228e-08 -1 25.9062 673.312)" stroke="white"/>
<line y1="-0.5" x2="981.094" y2="-0.5" transform="matrix(1 -8.74228e-08 -8.74228e-08 -1 25.9062 673.312)" stroke="white"/>
<line y1="-0.5" x2="981.094" y2="-0.5" transform="matrix(1 -8.74228e-08 -8.74228e-08 -1 25.9062 718.406)" stroke="white"/>
<line y1="-0.5" x2="981.094" y2="-0.5" transform="matrix(1 -8.74228e-08 -8.74228e-08 -1 25.9062 718.406)" stroke="white"/>
</g>
</g>
<defs>
<radialGradient id="paint0_radial_11_91" cx="0" cy="0" r="1" gradientUnits="userSpaceOnUse" gradientTransform="translate(358 -0.000140131) rotate(26.2554) scale(692.996 1601.28)">
<stop stop-color="white"/>
<stop offset="1" stop-color="#0C0C0C" stop-opacity="0"/>
</radialGradient>
<linearGradient id="paint1_linear_11_91" x1="1839" y1="0" x2="471.5" y2="0" gradientUnits="userSpaceOnUse">
<stop stop-color="white" stop-opacity="0"/>
<stop offset="0.53125" stop-color="white"/>
<stop offset="1" stop-color="white" stop-opacity="0"/>
</linearGradient>
</defs>
</svg>
