<svg width="172" height="32" viewBox="0 0 172 32" fill="none" xmlns="http://www.w3.org/2000/svg">
<path d="M14.0979 5.8541C14.6966 4.01148 17.3034 4.01148 17.9021 5.8541L19.1432 9.67376C19.4109 10.4978 20.1789 11.0557 21.0453 11.0557H25.0615C26.999 11.0557 27.8045 13.535 26.2371 14.6738L22.9879 17.0344C22.2869 17.5437 21.9936 18.4465 22.2614 19.2705L23.5024 23.0902C24.1012 24.9328 21.9922 26.465 20.4248 25.3262L17.1756 22.9656C16.4746 22.4563 15.5254 22.4563 14.8244 22.9656L11.5752 25.3262C10.0078 26.465 7.89885 24.9328 8.49755 23.0902L9.73863 19.2705C10.0064 18.4465 9.71306 17.5437 9.01209 17.0344L5.76289 14.6738C4.19546 13.535 5.00102 11.0557 6.93846 11.0557H10.9547C11.8211 11.0557 12.5891 10.4978 12.8568 9.67376L14.0979 5.8541Z" fill="#E1C025"/>
<path d="M49.0979 5.8541C49.6966 4.01148 52.3034 4.01148 52.9021 5.8541L54.1432 9.67376C54.4109 10.4978 55.1789 11.0557 56.0453 11.0557H60.0615C61.999 11.0557 62.8045 13.535 61.2371 14.6738L57.9879 17.0344C57.2869 17.5437 56.9936 18.4465 57.2614 19.2705L58.5024 23.0902C59.1012 24.9328 56.9922 26.465 55.4248 25.3262L52.1756 22.9656C51.4746 22.4563 50.5254 22.4563 49.8244 22.9656L46.5752 25.3262C45.0078 26.465 42.8988 24.9328 43.4976 23.0902L44.7386 19.2705C45.0064 18.4465 44.7131 17.5437 44.0121 17.0344L40.7629 14.6738C39.1955 13.535 40.001 11.0557 41.9385 11.0557H45.9547C46.8211 11.0557 47.5891 10.4978 47.8568 9.67376L49.0979 5.8541Z" fill="#E1C025"/>
<path d="M84.0979 5.8541C84.6966 4.01148 87.3034 4.01148 87.9021 5.8541L89.1432 9.67376C89.4109 10.4978 90.1789 11.0557 91.0453 11.0557H95.0615C96.999 11.0557 97.8045 13.535 96.2371 14.6738L92.9879 17.0344C92.2869 17.5437 91.9936 18.4465 92.2614 19.2705L93.5024 23.0902C94.1012 24.9328 91.9922 26.465 90.4248 25.3262L87.1756 22.9656C86.4746 22.4563 85.5254 22.4563 84.8244 22.9656L81.5752 25.3262C80.0078 26.465 77.8988 24.9328 78.4976 23.0902L79.7386 19.2705C80.0064 18.4465 79.7131 17.5437 79.0121 17.0344L75.7629 14.6738C74.1955 13.535 75.001 11.0557 76.9385 11.0557H80.9547C81.8211 11.0557 82.5891 10.4978 82.8568 9.67376L84.0979 5.8541Z" fill="#E1C025"/>
<path d="M119.098 5.8541C119.697 4.01148 122.303 4.01148 122.902 5.8541L124.143 9.67376C124.411 10.4978 125.179 11.0557 126.045 11.0557H130.062C131.999 11.0557 132.805 13.535 131.237 14.6738L127.988 17.0344C127.287 17.5437 126.994 18.4465 127.261 19.2705L128.502 23.0902C129.101 24.9328 126.992 26.465 125.425 25.3262L122.176 22.9656C121.475 22.4563 120.525 22.4563 119.824 22.9656L116.575 25.3262C115.008 26.465 112.899 24.9328 113.498 23.0902L114.739 19.2705C115.006 18.4465 114.713 17.5437 114.012 17.0344L110.763 14.6738C109.195 13.535 110.001 11.0557 111.938 11.0557H115.955C116.821 11.0557 117.589 10.4978 117.857 9.67376L119.098 5.8541Z" fill="#E1C025"/>
<path d="M154.098 5.8541C154.697 4.01148 157.303 4.01148 157.902 5.8541L159.143 9.67376C159.411 10.4978 160.179 11.0557 161.045 11.0557H165.062C166.999 11.0557 167.805 13.535 166.237 14.6738L162.988 17.0344C162.287 17.5437 161.994 18.4465 162.261 19.2705L163.502 23.0902C164.101 24.9328 161.992 26.465 160.425 25.3262L157.176 22.9656C156.475 22.4563 155.525 22.4563 154.824 22.9656L151.575 25.3262C150.008 26.465 147.899 24.9328 148.498 23.0902L149.739 19.2705C150.006 18.4465 149.713 17.5437 149.012 17.0344L145.763 14.6738C144.195 13.535 145.001 11.0557 146.938 11.0557H150.955C151.821 11.0557 152.589 10.4978 152.857 9.67376L154.098 5.8541Z" fill="#E1C025"/>
</svg>
