<svg width="35" height="34" viewBox="0 0 35 34" fill="none" xmlns="http://www.w3.org/2000/svg">
<path d="M17.5002 0.333374C26.7052 0.333374 34.1668 7.79504 34.1668 17C34.1668 26.205 26.7052 33.6667 17.5002 33.6667C8.29516 33.6667 0.833496 26.205 0.833496 17C0.833496 7.79504 8.29516 0.333374 17.5002 0.333374ZM23.5002 9.00004C23.3251 8.86872 23.1258 8.77317 22.9138 8.71885C22.7018 8.66453 22.4811 8.6525 22.2645 8.68346C22.0478 8.71441 21.8393 8.78774 21.651 8.89925C21.4627 9.01076 21.2982 9.15828 21.1668 9.33337L17.5002 14.2217L13.8335 9.33337C13.7022 9.15828 13.5377 9.01076 13.3493 8.89925C13.161 8.78774 12.9525 8.71441 12.7359 8.68346C12.5192 8.6525 12.2985 8.66453 12.0865 8.71885C11.8745 8.77317 11.6753 8.86872 11.5002 9.00004C11.3251 9.13136 11.1776 9.29589 11.066 9.48422C10.9545 9.67255 10.8812 9.881 10.8502 10.0977C10.8193 10.3143 10.8313 10.535 10.8856 10.747C10.94 10.959 11.0355 11.1583 11.1668 11.3334L15.4168 17L11.1668 22.6667C10.9016 23.0203 10.7877 23.4648 10.8502 23.9024C10.9128 24.34 11.1465 24.7348 11.5002 25C11.8538 25.2653 12.2983 25.3791 12.7359 25.3166C13.1734 25.2541 13.5683 25.0203 13.8335 24.6667L17.5002 19.7784L21.1668 24.6667C21.432 25.0203 21.8269 25.2541 22.2645 25.3166C22.702 25.3791 23.1465 25.2653 23.5002 25C23.8538 24.7348 24.0876 24.34 24.1501 23.9024C24.2126 23.4648 24.0987 23.0203 23.8335 22.6667L19.5835 17L23.8335 11.3334C23.9648 11.1583 24.0604 10.959 24.1147 10.747C24.169 10.535 24.181 10.3143 24.1501 10.0977C24.1191 9.881 24.0458 9.67255 23.9343 9.48422C23.8228 9.29589 23.6753 9.13136 23.5002 9.00004Z" fill="#FF5B5B"/>
</svg>
