<svg xmlns="http://www.w3.org/2000/svg" width="1920" height="111" viewBox="0 0 1920 111" fill="none"><path d="M896.9 60L895.974 64.9135L896.433 65H896.9V60ZM622 65.9879L623.564 61.239L622 65.9879ZM472 56.2287L474.673 60.454L472 56.2287ZM347 64.5891L350.08 60.65L347 64.5891ZM272 45.5388L275.127 49.4402L272 45.5388ZM222 85.6177L218.873 81.7163L222 85.6177ZM-56.25 89.5664L-55.4561 84.6298L-56.25 89.5664ZM-74 73.3559L-78.9999 73.3185L-79 73.3372V73.3559H-74ZM-73.9 60L-68.9001 60.0374L-68.8624 55H-73.9V60ZM897 60V55H896.9V60V65H897V60ZM896.9 60L897.826 55.0865L847.876 45.6737L846.95 50.5873L846.024 55.5008L895.974 64.9135L896.9 60ZM846.95 50.5873L847.876 45.6737C814.276 39.3421 787.944 40.0798 769.781 49.0742L772 53.5548L774.219 58.0355C789.39 50.5228 813.024 49.2821 846.024 55.5008L846.95 50.5873ZM772 53.5548L769.781 49.0742L744.781 61.4545L747 65.9352L749.219 70.4159L774.219 58.0355L772 53.5548ZM747 65.9352L744.781 61.4545L719.781 73.8348L722 78.3155L724.219 82.7962L749.219 70.4159L747 65.9352ZM722 78.3155L719.781 73.8348C704.213 81.5442 688.903 82.7642 673.564 77.7109L672 82.4599L670.436 87.2088C688.43 93.1369 706.453 91.594 724.219 82.7962L722 78.3155ZM672 82.4599L673.564 77.7109L648.564 69.475L647 74.2239L645.436 78.9728L670.436 87.2088L672 82.4599ZM647 74.2239L648.564 69.475L623.564 61.239L622 65.9879L620.436 70.7369L645.436 78.9728L647 74.2239ZM622 65.9879L623.564 61.239C606.674 55.6747 589.77 51.4237 572.854 48.4905L572 53.417L571.146 58.3434C587.563 61.1902 603.992 65.3198 620.436 70.7369L622 65.9879ZM572 53.417L572.854 48.4905L547.854 44.1555L547 49.082L546.146 54.0085L571.146 58.3434L572 53.417ZM547 49.082L547.854 44.1555L522.854 39.8205L522 44.747L521.146 49.6735L546.146 54.0085L547 49.082ZM522 44.747L522.854 39.8205C504.766 36.6839 486.857 40.9128 469.327 52.0033L472 56.2287L474.673 60.454C490.477 50.4557 505.901 47.03 521.146 49.6735L522 44.747ZM472 56.2287L469.327 52.0033L444.327 67.82L447 72.0453L449.673 76.2707L474.673 60.454L472 56.2287ZM447 72.0453L444.327 67.82L419.327 83.6366L422 87.862L424.673 92.0874L449.673 76.2707L447 72.0453ZM422 87.862L419.327 83.6366C411.732 88.4417 404.452 90.38 397.372 89.8522C390.257 89.3217 382.84 86.2622 375.08 80.1948L372 84.1339L368.92 88.073C377.826 95.0355 387.076 99.1122 396.628 99.8245C406.215 100.539 415.602 97.8268 424.673 92.0874L422 87.862ZM372 84.1339L375.08 80.1948L350.08 60.65L347 64.5891L343.92 68.5281L368.92 88.073L372 84.1339ZM347 64.5891L350.08 60.65L325.08 41.1052L322 45.0443L318.92 48.9833L343.92 68.5281L347 64.5891ZM322 45.0443L325.08 41.1052C316.098 34.0836 306.693 30.2994 296.951 30.3957C287.215 30.492 277.831 34.4569 268.873 41.6375L272 45.5388L275.127 49.4402C282.836 43.2612 290.118 40.4638 297.049 40.3953C303.974 40.3268 311.235 42.975 318.92 48.9833L322 45.0443ZM272 45.5388L268.873 41.6375L243.873 61.6769L247 65.5783L250.127 69.4796L275.127 49.4402L272 45.5388ZM247 65.5783L243.873 61.6769L218.873 81.7163L222 85.6177L225.127 89.519L250.127 69.4796L247 65.5783ZM222 85.6177L218.873 81.7163C203.066 94.3865 187.914 98.4936 173.095 95.1675L172 100.046L170.905 104.925C189.419 109.08 207.601 103.568 225.127 89.519L222 85.6177ZM172 100.046L173.095 95.1675L148.095 89.5566L147 94.4352L145.905 99.3138L170.905 104.925L172 100.046ZM147 94.4352L148.095 89.5566L123.095 83.9456L122 88.8243L120.905 93.7029L145.905 99.3138L147 94.4352ZM122 88.8243L123.095 83.9456C105.835 80.0719 88.5472 79.4189 71.2623 81.9973L72 86.9426L72.7377 91.8879C88.7861 89.4939 104.832 90.0954 120.905 93.7029L122 88.8243ZM72 86.9426L71.2623 81.9973L46.2623 85.7265L47 90.6718L47.7377 95.6171L72.7377 91.8879L72 86.9426ZM47 90.6718L46.2623 85.7265L21.2623 89.4558L22 94.4011L22.7377 99.3463L47.7377 95.6171L47 90.6718ZM22 94.4011L21.2623 89.4558C4.91443 91.8944 -8.78925 92.135 -19.9561 90.3391L-20.75 95.2757L-21.5439 100.212C-9.04413 102.222 5.7522 101.88 22.7377 99.3463L22 94.4011ZM-20.75 95.2757L-19.9561 90.3391L-37.7061 87.4845L-38.5 92.421L-39.2939 97.3576L-21.5439 100.212L-20.75 95.2757ZM-38.5 92.421L-37.7061 87.4845L-55.4561 84.6298L-56.25 89.5664L-57.0439 94.503L-39.2939 97.3576L-38.5 92.421ZM-56.25 89.5664L-55.4561 84.6298C-61.1835 83.7087 -64.9715 82.5461 -67.1968 81.351C-68.2849 80.7666 -68.7618 80.2988 -68.9395 80.0698C-69.0179 79.9686 -69.0247 79.9318 -69.015 79.9589C-69.011 79.9701 -69.0064 79.9864 -69.0032 80.0047C-69.0018 80.0133 -69.0009 80.0205 -69.0004 80.0261C-69 80.0316 -69 80.0344 -69 80.0338H-74H-79C-79 84.9417 -75.6019 88.1879 -71.9282 90.1609C-68.2369 92.1433 -63.1498 93.521 -57.0439 94.503L-56.25 89.5664ZM-74 80.0338H-69V73.3559H-74H-79V80.0338H-74ZM-74 73.3559L-69.0001 73.3933L-68.9001 60.0374L-73.9 60L-78.8998 59.9626L-78.9999 73.3185L-74 73.3559ZM-73.9 60V55H-74V60V65H-73.9V60Z" fill="#946EA6"></path><path d="M2220.74 77.9945L2219.67 82.8769L2220.12 82.9776L2220.59 82.9921L2220.74 77.9945ZM2096.11 67.6714L2098.18 72.2189L2096.11 67.6714ZM2045.36 90.8665L2043.28 86.319L2045.36 90.8665ZM1995.26 93.4552L1996.97 88.7571L1995.26 93.4552ZM1896.21 61.319L1895.2 66.2165L1896.21 61.319ZM1846.5 51.0995L1845.49 55.9971L1846.5 51.0995ZM1745.21 91.0864L1747.75 95.3928L1745.21 91.0864ZM1695.35 85.8064L1698.55 81.965L1695.35 85.8064ZM1646.59 45.182L1649.79 41.3406L1646.59 45.182ZM1596.6 44.1227L1599.6 48.1194L1596.6 44.1227ZM1545.37 82.6286L1542.37 78.6319L1545.37 82.6286ZM1445.32 82.7263L1446.57 77.8841L1445.32 82.7263ZM1395.41 79.2919L1395.99 84.2577L1395.41 79.2919ZM1195.82 62.7032L1197.85 58.1311L1195.82 62.7032ZM1146.48 40.8629L1148.5 36.2907L1146.48 40.8629ZM1107.09 32.3505L1106.28 27.416L1107.09 32.3505ZM1077.64 37.166L1078.45 42.1004L1077.64 37.166ZM1062.88 40.7856L1057.88 40.6303L1057.88 40.836L1057.89 41.0416L1062.88 40.7856ZM1062.94 42.0007L1062.79 46.9983L1068.22 47.167L1067.94 41.7448L1062.94 42.0007ZM2220.84 77.9976L2221 73L2220.9 72.9969L2220.74 77.9945L2220.59 82.9921L2220.69 82.9952L2220.84 77.9976ZM2220.74 77.9945L2221.82 73.1121L2172.19 62.1518L2171.11 67.0342L2170.03 71.9166L2219.67 82.8769L2220.74 77.9945ZM2171.11 67.0342L2172.19 62.1518C2138.8 54.7792 2112.46 54.6983 2094.03 63.1239L2096.11 67.6714L2098.18 72.2189C2113.58 65.1812 2137.24 64.6754 2170.03 71.9166L2171.11 67.0342ZM2096.11 67.6714L2094.03 63.1239L2068.65 74.7215L2070.73 79.2689L2072.81 83.8164L2098.18 72.2189L2096.11 67.6714ZM2070.73 79.2689L2068.65 74.7215L2043.28 86.319L2045.36 90.8665L2047.44 95.4139L2072.81 83.8164L2070.73 79.2689ZM2045.36 90.8665L2043.28 86.319C2027.48 93.5409 2012.14 94.2846 1996.97 88.7571L1995.26 93.4552L1993.54 98.1532C2011.35 104.638 2029.41 103.655 2047.44 95.4139L2045.36 90.8665ZM1995.26 93.4552L1996.97 88.7571L1972.23 79.7483L1970.52 84.4463L1968.81 89.1444L1993.54 98.1532L1995.26 93.4552ZM1970.52 84.4463L1972.23 79.7483L1947.5 70.7395L1945.79 75.4375L1944.08 80.1356L1968.81 89.1444L1970.52 84.4463ZM1945.79 75.4375L1947.5 70.7395C1930.79 64.6531 1914.03 59.8789 1897.21 56.4214L1896.21 61.319L1895.2 66.2165C1911.52 69.572 1927.81 74.2102 1944.08 80.1356L1945.79 75.4375ZM1896.21 61.319L1897.21 56.4214L1872.36 51.3117L1871.35 56.2093L1870.35 61.1068L1895.2 66.2165L1896.21 61.319ZM1871.35 56.2093L1872.36 51.3117L1847.51 46.202L1846.5 51.0995L1845.49 55.9971L1870.35 61.1068L1871.35 56.2093ZM1846.5 51.0995L1847.51 46.202C1829.52 42.5049 1811.49 46.1752 1793.63 56.7156L1796.17 61.022L1798.71 65.3284C1814.81 55.8259 1830.34 52.8812 1845.49 55.9971L1846.5 51.0995ZM1796.17 61.022L1793.63 56.7156L1768.15 71.7478L1770.69 76.0542L1773.23 80.3606L1798.71 65.3284L1796.17 61.022ZM1770.69 76.0542L1768.15 71.7478L1742.67 86.78L1745.21 91.0864L1747.75 95.3928L1773.23 80.3606L1770.69 76.0542ZM1745.21 91.0864L1742.67 86.78C1734.93 91.3468 1727.59 93.058 1720.53 92.3103C1713.44 91.5591 1706.12 88.2705 1698.55 81.965L1695.35 85.8064L1692.15 89.6479C1700.83 96.8838 1709.95 101.246 1719.48 102.255C1729.04 103.267 1738.5 100.848 1747.75 95.3928L1745.21 91.0864ZM1695.35 85.8064L1698.55 81.965L1674.17 61.6528L1670.97 65.4942L1667.77 69.3357L1692.15 89.6479L1695.35 85.8064ZM1670.97 65.4942L1674.17 61.6528L1649.79 41.3406L1646.59 45.182L1643.39 49.0235L1667.77 69.3357L1670.97 65.4942ZM1646.59 45.182L1649.79 41.3406C1641.03 34.0433 1631.75 29.9686 1622 29.7622C1612.27 29.556 1602.77 33.2273 1593.59 40.1261L1596.6 44.1227L1599.6 48.1194C1607.5 42.1829 1614.86 39.6132 1621.79 39.76C1628.72 39.9067 1635.89 42.7793 1643.39 49.0235L1646.59 45.182ZM1596.6 44.1227L1593.59 40.1261L1567.98 59.379L1570.99 63.3757L1573.99 67.3723L1599.6 48.1194L1596.6 44.1227ZM1570.99 63.3757L1567.98 59.379L1542.37 78.6319L1545.37 82.6286L1548.38 86.6252L1573.99 67.3723L1570.99 63.3757ZM1545.37 82.6286L1542.37 78.6319C1526.18 90.8048 1510.91 94.4391 1496.2 90.6542L1494.95 95.4964L1493.7 100.339C1512.08 105.067 1530.42 100.123 1548.38 86.6252L1545.37 82.6286ZM1494.95 95.4964L1496.2 90.6542L1471.38 84.2691L1470.14 89.1114L1468.89 93.9536L1493.7 100.339L1494.95 95.4964ZM1470.14 89.1114L1471.38 84.2691L1446.57 77.8841L1445.32 82.7263L1444.08 87.5686L1468.89 93.9536L1470.14 89.1114ZM1445.32 82.7263L1446.57 77.8841C1429.44 73.4759 1412.18 72.286 1394.82 74.3261L1395.41 79.2919L1395.99 84.2577C1412.1 82.3636 1428.12 83.4634 1444.08 87.5686L1445.32 82.7263ZM1395.41 79.2919L1394.82 74.3261L1369.72 77.2767L1370.3 82.2425L1370.89 87.2083L1395.99 84.2577L1395.41 79.2919ZM1370.3 82.2425L1369.72 77.2767L1344.61 80.2273L1345.2 85.1931L1345.78 90.1589L1370.89 87.2083L1370.3 82.2425ZM1345.2 85.1931L1344.61 80.2273C1328.31 82.1436 1312.08 81.9227 1295.92 79.5659L1295.2 84.5136L1294.47 89.4613C1311.51 91.9447 1328.61 92.1767 1345.78 90.1589L1345.2 85.1931ZM1295.2 84.5136L1295.92 79.5659L1271.02 75.9358L1270.3 80.8835L1269.57 85.8312L1294.47 89.4613L1295.2 84.5136ZM1270.3 80.8835L1271.02 75.9358L1246.12 72.3058L1245.4 77.2535L1244.68 82.2012L1269.57 85.8312L1270.3 80.8835ZM1245.4 77.2535L1246.12 72.3058C1230 69.9558 1213.91 65.2407 1197.85 58.1311L1195.82 62.7032L1193.8 67.2754C1210.63 74.726 1227.6 79.7111 1244.68 82.2012L1245.4 77.2535ZM1195.82 62.7032L1197.85 58.1311L1173.18 47.2109L1171.15 51.7831L1169.13 56.3552L1193.8 67.2754L1195.82 62.7032ZM1171.15 51.7831L1173.18 47.2109L1148.5 36.2907L1146.48 40.8629L1144.46 45.4351L1169.13 56.3552L1171.15 51.7831ZM1146.48 40.8629L1148.5 36.2907C1131.79 28.8925 1117.55 25.572 1106.28 27.416L1107.09 32.3505L1107.89 37.2849C1116.25 35.9187 1128.27 38.2731 1144.46 45.4351L1146.48 40.8629ZM1107.09 32.3505L1106.28 27.416L1091.56 29.8238L1092.36 34.7582L1093.17 39.6927L1107.89 37.2849L1107.09 32.3505ZM1092.36 34.7582L1091.56 29.8238L1076.83 32.2315L1077.64 37.166L1078.45 42.1004L1093.17 39.6927L1092.36 34.7582ZM1077.64 37.166L1076.83 32.2315C1071.91 33.0366 1068.15 33.7018 1065.59 34.2246C1064.33 34.4821 1063.26 34.7263 1062.45 34.9567C1062.08 35.0635 1061.58 35.2195 1061.09 35.4364C1060.88 35.5335 1060.41 35.7519 1059.92 36.1281C1059.71 36.2856 1057.98 37.5639 1057.9 40.0243L1062.9 40.1797L1067.9 40.335C1067.82 42.7449 1066.13 43.968 1066 44.0657C1065.59 44.3819 1065.24 44.5358 1065.18 44.5636C1065 44.6421 1064.96 44.6407 1065.2 44.5714C1065.63 44.4497 1066.4 44.2667 1067.6 44.0219C1069.95 43.5401 1073.56 42.9005 1078.45 42.1004L1077.64 37.166ZM1062.9 40.1797L1057.9 40.0243L1057.88 40.6303L1062.88 40.7856L1067.88 40.941L1067.9 40.335L1062.9 40.1797ZM1062.88 40.7856L1057.89 41.0416L1057.95 42.2566L1062.94 42.0007L1067.94 41.7448L1067.88 40.5297L1062.88 40.7856ZM1062.94 42.0007L1063.1 37.0031L1063 37L1062.84 41.9976L1062.69 46.9952L1062.79 46.9983L1062.94 42.0007Z" fill="#946EA6"></path><g clip-path="url(#clip0_25_107)"><path d="M987.382 93.5384C987.277 93.5666 987.169 93.582 987.058 93.5879C986.662 93.6017 986.274 93.4562 985.984 93.189C982.598 90.0326 989.03 81.9469 1004.52 64.2629C1008.66 59.5259 1013.73 53.7452 1017.08 49.3807C1013.55 53.2826 1008.82 58.6847 1004.42 63.7117C984.869 86.0568 980.537 90.6018 978.67 90.6924C978.269 90.7143 977.752 90.5318 977.457 90.2559C976.866 89.7073 976.824 88.7863 977.362 88.1811C995.992 67.347 1014.66 44.1348 1018.86 35.4394C1010.83 43.8033 987.514 69.0619 971.329 86.6831C971.058 86.9709 970.693 87.1507 970.293 87.1622C969.899 87.1824 969.514 87.0329 969.224 86.7689C968.76 86.3366 968.2 85.5475 968.161 84.2399C968.112 82.6444 968.933 80.4438 970.436 77.77C968.607 79.7627 966.831 81.7106 965.131 83.5731C964.86 83.8641 964.489 84.0352 964.097 84.0618C963.699 84.0797 963.314 83.9302 963.024 83.663C962.659 83.3234 962.215 82.698 962.192 81.6694C962.167 80.5664 962.79 78.9036 963.929 76.8464C960.198 80.766 959.568 81.051 958.926 81.0898C958.529 81.1109 958.101 80.9557 957.808 80.6789C952.288 75.5364 967.687 56.1521 996.151 24.4048C999.055 21.1609 1001.86 18.0347 1003.62 15.9832C997.843 19.505 983.773 35.1559 968.857 53.5879C965.475 57.94 961.69 62.7654 957.463 68.1223C956.088 69.8602 954.813 71.4755 953.872 72.6804C953.322 73.405 952.775 74.1287 952.228 74.8525C951.973 75.1872 951.581 75.3842 951.172 75.4359C950.755 75.4726 950.337 75.3284 950.031 75.0414C949.498 74.5423 949.238 74.2978 949.945 73.1249L949.864 73.0647C951.594 70.7776 958.382 61.8416 966.735 51.5032C974.71 41.2487 984.014 29.0434 989.278 21.2638C983.825 27.1135 975.788 35.9055 968.805 43.5412C945.546 68.9829 945.518 68.9906 944.516 69.013C944.122 69.0333 943.727 68.8831 943.436 68.6159C941.369 66.6871 943.36 62.8105 961.291 39.1924C963.27 36.5858 965.378 33.8114 967.09 31.495C962.364 36.3914 955.412 45.0604 951.068 50.4761C942.534 61.1193 941.288 62.4709 940.026 62.5665C939.614 62.5983 939.122 62.4297 938.817 62.146C936.824 60.2895 939.063 57.2649 950.372 44.0033C951.374 42.8231 952.473 41.5347 953.597 40.2092C939.399 55.9934 938.277 56.7004 937.241 56.749C936.843 56.7669 936.404 56.6079 936.109 56.3352C935.195 55.484 934.922 55.2326 943.554 41.6536C939.896 45.5879 936.943 48.2812 935.692 48.3943C935.284 48.4252 934.664 48.2155 934.364 47.9373C933.714 47.333 932.352 46.0588 937.792 35.6741L937.614 33.2118L937.707 34.693L936.598 33.713C936.661 33.6312 936.812 33.4302 937.023 33.145C940.901 27.9019 942.118 26.9405 943.259 26.8261C943.679 26.7854 944.308 26.9925 944.617 27.2785C945.127 27.7564 945.237 28.5227 944.883 29.1264C941.773 34.3685 938.545 40.52 937.245 43.9145C940.975 40.3775 948.654 31.5242 955.416 23.1929C955.914 22.578 956.803 22.4662 957.442 22.9268C958.081 23.3873 958.245 24.2687 957.818 24.9296C953.861 31.0646 948.543 39.3844 944.49 45.8354C948.76 41.1875 953.823 35.5213 957.306 31.6203C964.847 23.1863 964.838 23.2056 965.586 23.1658C965.984 23.1479 966.375 23.2958 966.67 23.5653C967.613 24.4464 967.676 25.7032 966.639 27.8082C968.711 25.8938 970.232 24.9297 971.368 24.8505C972.018 24.8028 972.623 25.0094 973.073 25.4252C974.402 26.6639 974.483 26.7377 963.664 40.9848C959.508 46.4526 953.611 54.2204 949.741 59.9258C954.288 55.026 960.684 48.0259 966.624 41.5303C993.568 12.0619 993.743 12.0661 994.761 12.005C995.156 11.988 995.555 12.1373 995.845 12.4044C996.765 13.2643 997.62 14.0597 991.976 22.5251C997.821 16.6184 1002.77 12.5967 1005.45 12.3485C1006.63 12.2471 1007.38 12.6985 1007.8 13.093C1009.16 14.3593 1009.16 14.3593 998.374 26.3806C988.465 37.4334 959.677 69.5406 959.423 77.2239C963.111 73.6132 973.735 61.7474 983.257 51.1092C1009.84 21.4173 1013.13 18.1812 1014.63 18.1057C1015.02 18.0878 1015.47 18.2506 1015.77 18.5233C1016.06 18.7969 1016.23 19.1749 1016.24 19.5707C1016.25 19.9674 1016.1 20.3573 1015.83 20.6388C994.592 42.5873 973.18 66.9297 966.95 77.1981C1016.4 23.0545 1017.35 23.052 1018.1 23.0378C1018.5 23.0207 1018.9 23.1683 1019.19 23.4395C1019.48 23.7099 1019.66 24.0966 1019.67 24.4988C1019.7 25.417 1019.7 25.4369 1011.37 34.2042C1000.22 45.9461 975.265 72.2245 971.6 82.024C1019.33 30.0464 1019.96 30.0359 1020.76 29.9656C1021.15 29.9518 1021.54 30.0996 1021.83 30.3668C1024.01 32.3985 1020.38 39.373 1014.09 48.2973C1019.83 41.9163 1020.91 41.1324 1021.79 41.0848C1022.19 41.0629 1022.64 41.2249 1022.94 41.4999C1025.71 44.0874 1020.99 49.9944 1006.77 66.2198C1001.61 72.1231 993.966 80.8428 990.253 86.3695C1016.48 57.6981 1016.95 57.6646 1017.73 57.6074C1018.13 57.5912 1018.52 57.7373 1018.81 58.0054C1019.41 58.5641 1019.44 59.499 1018.89 60.1021C1018.78 60.2135 1018.66 60.314 1018.53 60.3898C1016.62 62.0509 999.407 80.7441 988.116 93.1028C987.9 93.3176 987.653 93.4658 987.382 93.5384Z" fill="#946EA6"></path></g><defs><clipPath id="clip0_25_107"><rect width="90.0532" height="90.0499" fill="white" transform="translate(927 23.3076) rotate(-15)"></rect></clipPath></defs></svg>