<svg xmlns="http://www.w3.org/2000/svg" width="39" height="39" viewBox="0 0 39 39" fill="none"><path d="M19.5 37.7813C23.1157 37.7813 26.6502 36.7091 29.6565 34.7003C32.6628 32.6915 35.006 29.8364 36.3897 26.4959C37.7733 23.1555 38.1354 19.4797 37.43 15.9335C36.7246 12.3873 34.9835 9.12989 32.4268 6.57321C29.8701 4.01653 26.6127 2.27541 23.0665 1.57003C19.5203 0.86464 15.8445 1.22667 12.5041 2.61033C9.1636 3.994 6.30846 6.33715 4.29969 9.34349C2.29092 12.3498 1.21874 15.8843 1.21874 19.5C1.22048 24.348 3.1471 28.9969 6.57512 32.4249C10.0031 35.8529 14.652 37.7795 19.5 37.7813ZM11.5537 14.82C11.9384 14.4448 12.4545 14.2348 12.9919 14.2348C13.5292 14.2348 14.0453 14.4448 14.43 14.82L18.6469 19.0125C18.7569 19.1281 18.8892 19.22 19.0359 19.2829C19.1825 19.3458 19.3404 19.3782 19.5 19.3782C19.6595 19.3782 19.8174 19.3458 19.9641 19.2829C20.1107 19.22 20.2431 19.1281 20.3531 19.0125L24.57 14.82C24.853 14.534 25.2148 14.3388 25.6093 14.2595C26.0037 14.1802 26.4129 14.2203 26.7844 14.3746C27.156 14.529 27.4731 14.7907 27.6952 15.1262C27.9173 15.4617 28.0343 15.8558 28.0312 16.2581C28.0257 16.7944 27.8166 17.3085 27.4462 17.6963L20.9381 24.18C20.7505 24.3711 20.5267 24.5229 20.2798 24.6265C20.0329 24.7301 19.7678 24.7835 19.5 24.7835C19.2322 24.7835 18.9671 24.7301 18.7202 24.6265C18.4733 24.5229 18.2495 24.3711 18.0619 24.18L11.5537 17.6963C11.1834 17.3085 10.9742 16.7944 10.9687 16.2581C10.9668 15.9917 11.0175 15.7275 11.1179 15.4808C11.2183 15.234 11.3664 15.0094 11.5537 14.82Z" fill="#946EA6"></path></svg>